<mxfile modified="2020-08-06T17:34:15.861Z" host="app.diagrams.net" agent="5.0 (Macintosh; Intel Mac OS X 10_14_6) AppleWebKit/537.36 (KHTML, like Gecko) Chrome/84.0.4147.105 Safari/537.36" etag="8zKReUREcHPJM-SUTst3" version="13.6.0" type="github">
  <diagram id="Ht1M8jgEwFfnCIfOTk4-" name="Page-1">
    <mxGraphModel dx="1426" dy="727" grid="1" gridSize="10" guides="1" tooltips="1" connect="1" arrows="1" fold="1" page="1" pageScale="1" pageWidth="1169" pageHeight="827" math="0" shadow="0">
      <root>
        <mxCell id="0" />
        <mxCell id="1" parent="0" />
        <mxCell id="3jy3yB1aXVWg1WfaucLL-14" value="" style="rounded=1;whiteSpace=wrap;html=1;dashed=1;fillColor=none;arcSize=9;" vertex="1" parent="1">
          <mxGeometry x="80" y="489" width="463" height="191" as="geometry" />
        </mxCell>
        <mxCell id="3jy3yB1aXVWg1WfaucLL-30" value="AWS" style="rounded=1;arcSize=2;fillColor=none;gradientColor=none;strokeWidth=2;fontStyle=1;verticalAlign=top;align=left;fontSize=18;" vertex="1" parent="1">
          <mxGeometry x="53" y="170" width="527" height="510" as="geometry" />
        </mxCell>
        <mxCell id="-QjtrjUzRDEMRZ5MF8oH-47" value="NMX-Starter-PoC" style="text;html=1;resizable=0;points=[];autosize=1;align=left;verticalAlign=top;spacingTop=-4;fontSize=30;fontStyle=1" parent="1" vertex="1">
          <mxGeometry x="56.5" y="64.5" width="260" height="40" as="geometry" />
        </mxCell>
        <mxCell id="-QjtrjUzRDEMRZ5MF8oH-48" value="Intranet de Precios" style="text;html=1;resizable=0;points=[];autosize=1;align=left;verticalAlign=top;spacingTop=-4;fontSize=16;" parent="1" vertex="1">
          <mxGeometry x="56.5" y="114.5" width="150" height="20" as="geometry" />
        </mxCell>
        <mxCell id="SCVMTBWpLvtzJIhz15lM-1" value="" style="line;strokeWidth=2;html=1;fontSize=14;" parent="1" vertex="1">
          <mxGeometry x="52.5" y="139.5" width="1060" height="10" as="geometry" />
        </mxCell>
        <mxCell id="3jy3yB1aXVWg1WfaucLL-1" value="&lt;font style=&quot;font-size: 16px&quot;&gt;&lt;b&gt;VPC&lt;/b&gt;&lt;/font&gt;" style="outlineConnect=0;gradientColor=none;html=1;whiteSpace=wrap;fontSize=12;fontStyle=0;shape=mxgraph.aws4.group;grIcon=mxgraph.aws4.group_vpc;strokeColor=#879196;fillColor=none;verticalAlign=top;align=left;spacingLeft=30;fontColor=#879196;dashed=0;" vertex="1" parent="1">
          <mxGeometry x="80" y="200" width="463" height="280" as="geometry" />
        </mxCell>
        <mxCell id="3jy3yB1aXVWg1WfaucLL-3" value="" style="rounded=1;arcSize=10;dashed=0;fillColor=none;gradientColor=none;strokeWidth=2;" vertex="1" parent="1">
          <mxGeometry x="113" y="270" width="180" height="160" as="geometry" />
        </mxCell>
        <mxCell id="3jy3yB1aXVWg1WfaucLL-4" value="" style="dashed=0;html=1;shape=mxgraph.aws3.permissions;fillColor=#D9A741;gradientColor=none;dashed=0;" vertex="1" parent="1">
          <mxGeometry x="133" y="250" width="30" height="35" as="geometry" />
        </mxCell>
        <mxCell id="3jy3yB1aXVWg1WfaucLL-7" value="&lt;b&gt;&lt;font style=&quot;font-size: 16px&quot;&gt;Availability Zone&lt;/font&gt;&lt;/b&gt;" style="rounded=0;whiteSpace=wrap;html=1;fillColor=none;dashed=1;verticalAlign=bottom;" vertex="1" parent="1">
          <mxGeometry x="103" y="233.75" width="200" height="232.5" as="geometry" />
        </mxCell>
        <mxCell id="3jy3yB1aXVWg1WfaucLL-8" value="" style="rounded=1;arcSize=10;dashed=0;fillColor=none;gradientColor=none;strokeWidth=2;" vertex="1" parent="1">
          <mxGeometry x="323" y="270" width="180" height="160" as="geometry" />
        </mxCell>
        <mxCell id="3jy3yB1aXVWg1WfaucLL-9" value="" style="dashed=0;html=1;shape=mxgraph.aws3.permissions;fillColor=#D9A741;gradientColor=none;dashed=0;" vertex="1" parent="1">
          <mxGeometry x="343" y="250" width="30" height="35" as="geometry" />
        </mxCell>
        <mxCell id="3jy3yB1aXVWg1WfaucLL-10" value="&lt;b style=&quot;font-size: 16px;&quot;&gt;Availability Zone&lt;/b&gt;" style="rounded=0;whiteSpace=wrap;html=1;fillColor=none;dashed=1;verticalAlign=bottom;fontSize=16;" vertex="1" parent="1">
          <mxGeometry x="313" y="233.75" width="200" height="232.5" as="geometry" />
        </mxCell>
        <mxCell id="3jy3yB1aXVWg1WfaucLL-11" value="&lt;b style=&quot;font-size: 14px&quot;&gt;Router&lt;br&gt;72.21.209.193&lt;br&gt;&lt;/b&gt;" style="outlineConnect=0;fontColor=#232F3E;gradientColor=none;fillColor=#5A30B5;strokeColor=none;dashed=0;verticalLabelPosition=bottom;verticalAlign=top;align=center;html=1;fontSize=12;fontStyle=0;aspect=fixed;pointerEvents=1;shape=mxgraph.aws4.router;" vertex="1" parent="1">
          <mxGeometry x="151.5" y="540" width="78" height="78" as="geometry" />
        </mxCell>
        <mxCell id="3jy3yB1aXVWg1WfaucLL-12" value="&lt;b style=&quot;font-size: 14px&quot;&gt;Router&lt;br&gt;72.21.209.225&lt;br&gt;&lt;/b&gt;" style="outlineConnect=0;fontColor=#232F3E;gradientColor=none;fillColor=#5A30B5;strokeColor=none;dashed=0;verticalLabelPosition=bottom;verticalAlign=top;align=center;html=1;fontSize=12;fontStyle=0;aspect=fixed;pointerEvents=1;shape=mxgraph.aws4.router;" vertex="1" parent="1">
          <mxGeometry x="383" y="540" width="78" height="78" as="geometry" />
        </mxCell>
        <mxCell id="3jy3yB1aXVWg1WfaucLL-15" value="&lt;b style=&quot;font-size: 14px;&quot;&gt;Virtual Private Gateway&lt;/b&gt;" style="ellipse;whiteSpace=wrap;html=1;aspect=fixed;fillColor=none;fontSize=14;" vertex="1" parent="1">
          <mxGeometry x="268" y="500" width="80" height="80" as="geometry" />
        </mxCell>
        <mxCell id="3jy3yB1aXVWg1WfaucLL-19" value="" style="endArrow=none;html=1;strokeWidth=3;" edge="1" parent="1" target="3jy3yB1aXVWg1WfaucLL-11">
          <mxGeometry width="50" height="50" relative="1" as="geometry">
            <mxPoint x="191" y="730" as="sourcePoint" />
            <mxPoint x="683" y="650" as="targetPoint" />
          </mxGeometry>
        </mxCell>
        <mxCell id="3jy3yB1aXVWg1WfaucLL-22" value="&lt;font style=&quot;font-size: 16px&quot;&gt;&lt;b&gt;VPN Connection&lt;/b&gt;&lt;/font&gt;" style="outlineConnect=0;fontColor=#232F3E;gradientColor=none;fillColor=#5A30B5;strokeColor=none;dashed=0;verticalLabelPosition=bottom;verticalAlign=top;align=center;html=1;fontSize=12;fontStyle=0;aspect=fixed;pointerEvents=1;shape=mxgraph.aws4.vpn_connection;" vertex="1" parent="1">
          <mxGeometry x="273" y="690" width="70" height="78" as="geometry" />
        </mxCell>
        <mxCell id="3jy3yB1aXVWg1WfaucLL-23" value="" style="endArrow=none;html=1;strokeWidth=3;" edge="1" parent="1">
          <mxGeometry width="50" height="50" relative="1" as="geometry">
            <mxPoint x="191" y="729" as="sourcePoint" />
            <mxPoint x="271" y="728.304347826087" as="targetPoint" />
          </mxGeometry>
        </mxCell>
        <mxCell id="3jy3yB1aXVWg1WfaucLL-28" value="" style="endArrow=none;html=1;strokeWidth=3;strokeColor=#FF0000;" edge="1" parent="1">
          <mxGeometry width="50" height="50" relative="1" as="geometry">
            <mxPoint x="343" y="729.2" as="sourcePoint" />
            <mxPoint x="423" y="728.504347826087" as="targetPoint" />
          </mxGeometry>
        </mxCell>
        <mxCell id="3jy3yB1aXVWg1WfaucLL-29" value="" style="endArrow=none;html=1;strokeWidth=3;strokeColor=#FF0000;" edge="1" parent="1">
          <mxGeometry width="50" height="50" relative="1" as="geometry">
            <mxPoint x="423.37" y="730" as="sourcePoint" />
            <mxPoint x="422.9991390728477" y="618" as="targetPoint" />
          </mxGeometry>
        </mxCell>
        <mxCell id="3jy3yB1aXVWg1WfaucLL-31" value="&lt;font style=&quot;font-size: 14px;&quot;&gt;Tunnel 1&lt;/font&gt;" style="text;html=1;strokeColor=none;fillColor=none;align=center;verticalAlign=middle;whiteSpace=wrap;rounded=0;fontSize=14;fontStyle=1" vertex="1" parent="1">
          <mxGeometry x="103" y="700" width="80" height="20" as="geometry" />
        </mxCell>
        <mxCell id="3jy3yB1aXVWg1WfaucLL-34" value="&lt;font style=&quot;font-size: 14px&quot;&gt;Tunnel 2&lt;/font&gt;" style="text;html=1;strokeColor=none;fillColor=none;align=center;verticalAlign=middle;whiteSpace=wrap;rounded=0;fontSize=14;fontStyle=1" vertex="1" parent="1">
          <mxGeometry x="433" y="700" width="80" height="20" as="geometry" />
        </mxCell>
        <mxCell id="3jy3yB1aXVWg1WfaucLL-36" value="&lt;b&gt;&lt;font style=&quot;font-size: 16px&quot;&gt;Customer Network&lt;/font&gt;&lt;/b&gt;" style="rounded=1;whiteSpace=wrap;html=1;fillColor=none;fontSize=14;align=center;verticalAlign=bottom;" vertex="1" parent="1">
          <mxGeometry x="80" y="800" width="480" height="180" as="geometry" />
        </mxCell>
        <mxCell id="3jy3yB1aXVWg1WfaucLL-37" value="&lt;b&gt;&lt;font style=&quot;font-size: 16px&quot;&gt;xxx.xxx.xxx.xxx&lt;/font&gt;&lt;/b&gt;" style="outlineConnect=0;fontColor=#232F3E;gradientColor=none;fillColor=#5A30B5;strokeColor=none;dashed=0;verticalLabelPosition=bottom;verticalAlign=top;align=center;html=1;fontSize=12;fontStyle=0;aspect=fixed;pointerEvents=1;shape=mxgraph.aws4.customer_gateway;" vertex="1" parent="1">
          <mxGeometry x="272.5" y="800" width="78" height="78" as="geometry" />
        </mxCell>
        <mxCell id="3jy3yB1aXVWg1WfaucLL-38" value="" style="verticalLabelPosition=bottom;aspect=fixed;html=1;verticalAlign=top;strokeColor=none;align=center;outlineConnect=0;shape=mxgraph.citrix.datacenter;fillColor=none;fontSize=16;" vertex="1" parent="1">
          <mxGeometry x="420" y="827" width="127.5" height="135" as="geometry" />
        </mxCell>
      </root>
    </mxGraphModel>
  </diagram>
</mxfile>
